<svg width="46" height="40" viewBox="0 0 46 40" fill="none" xmlns="http://www.w3.org/2000/svg">
<path d="M45.3225 1.11884C44.9208 0.419043 44.1993 0.00133663 43.3924 0.00133663L2.22914 0C1.27353 0 0.449967 0.582098 0.131163 1.483C-0.18773 2.3839 0.0862562 3.35439 0.829092 3.95556L17.2422 17.2379L20.4346 38.1094C20.579 39.054 21.279 39.78 22.2176 39.959C22.3621 39.9866 22.5058 40 22.6477 40C23.4284 39.9999 24.1486 39.5935 24.5564 38.8952L45.3143 3.34922C45.721 2.65245 45.7241 1.81864 45.3225 1.11884ZM23.4021 38.2213C23.108 38.7248 22.6126 38.6738 22.4678 38.6463C22.323 38.6188 21.8438 38.4839 21.7556 37.9075L18.5934 17.2329L20.7509 15.9944C21.071 15.8106 21.1816 15.4022 20.9978 15.0822C20.8141 14.7621 20.4058 14.6516 20.0856 14.8353L17.928 16.0738L1.66985 2.91664C1.21659 2.5499 1.34187 2.06795 1.39105 1.92895C1.44024 1.78995 1.64606 1.33652 2.22923 1.33652L43.3924 1.33785C43.4521 1.33785 43.5099 1.34534 43.5665 1.35639L22.5969 13.3936C22.2769 13.5773 22.1663 13.9858 22.35 14.3059C22.4735 14.5211 22.6987 14.6415 22.9302 14.6415C23.0431 14.6415 23.1574 14.6129 23.2623 14.5527L44.2317 2.51559C44.2126 2.57003 44.19 2.62376 44.16 2.67517L23.4021 38.2213Z" fill="#121212"/>
</svg>
